<?xml version="1.0" encoding="UTF-8"?>
<svg id="Layer_1" data-name="Layer 1" xmlns="http://www.w3.org/2000/svg" xmlns:xlink="http://www.w3.org/1999/xlink" viewBox="0 0 528.48 212.67">
  <defs>
    <style>
      .cls-1 {
        fill: #0071bc;
      }

      .cls-1, .cls-2, .cls-3 {
        stroke-width: 0px;
      }

      .cls-4 {
        fill: url(#linear-gradient-2);
      }

      .cls-4, .cls-5 {
        stroke: #1b1464;
        stroke-width: 1.5px;
      }

      .cls-4, .cls-5, .cls-6, .cls-7, .cls-8, .cls-9, .cls-10, .cls-11, .cls-12 {
        stroke-miterlimit: 10;
      }

      .cls-2 {
        fill: #1b1464;
      }

      .cls-5 {
        fill: url(#linear-gradient);
      }

      .cls-6, .cls-7, .cls-8, .cls-9, .cls-10, .cls-11, .cls-12 {
        fill: none;
      }

      .cls-6, .cls-7, .cls-8, .cls-10, .cls-11, .cls-12 {
        stroke-linecap: round;
      }

      .cls-6, .cls-8, .cls-9, .cls-10, .cls-11, .cls-12 {
        stroke: #fff;
      }

      .cls-7 {
        stroke: #0071bc;
        stroke-width: 2px;
      }

      .cls-3 {
        fill: #fff;
      }

      .cls-8 {
        stroke-dasharray: 0 0 2.02 2.02;
      }

      .cls-9 {
        stroke-width: .25px;
      }

      .cls-10 {
        stroke-width: .75px;
      }

      .cls-11 {
        stroke-width: .5px;
      }

      .cls-12 {
        stroke-dasharray: 0 0 2.03 2.03;
      }
    </style>
    <linearGradient id="linear-gradient" x1="348.49" y1="74.09" x2="522.53" y2="74.09" gradientUnits="userSpaceOnUse">
      <stop offset="0" stop-color="#29abe2"/>
      <stop offset="1" stop-color="#2e3192"/>
    </linearGradient>
    <linearGradient id="linear-gradient-2" x1="332.9" y1="115.65" x2="527.73" y2="115.65" xlink:href="#linear-gradient"/>
  </defs>
  <line class="cls-7" x1="164.15" y1="188.45" x2="302.15" y2="188.45"/>
  <line class="cls-7" x1="230.15" y1="175.45" x2="302.15" y2="175.45"/>
  <line class="cls-7" x1="80.65" y1="200.95" x2="301.65" y2="200.95"/>
  <path class="cls-1" d="M164.05,146.16c-33.65,0-61.32-26.4-64.61-66.88-.22,2.67-.33,5.38-.33,8.12,0,44.29,29.08,80.2,64.94,80.2s64.94-35.91,64.94-80.2c0-2.74-.11-5.45-.33-8.12-3.3,40.48-30.97,66.88-64.61,66.88Z"/>
  <path class="cls-2" d="M68.55,76.66c1.9.08,3.74.13,5.51.17,1.77.04,3.42.07,4.97.09,1.54.02,2.93.04,4.17.06,1.24.02,2.29.03,3.17.03,1.75,0,3.41-.06,4.97-.17,1.56-.11,2.89-.23,4-.34.42,1.45.63,2.59.63,3.42,0,1.68-.69,2.78-2.08,3.31-1.39.53-3.4.8-6.02.8s-5.56-.14-8.79-.43c-3.24-.29-6.79-.56-10.67-.83-.15,4.53-.34,9.46-.57,14.78-.23,5.33-.52,10.84-.88,16.55s-.81,11.5-1.34,17.38c-.53,5.88-1.19,11.62-1.97,17.21-.78,5.59-1.7,10.93-2.77,16.01-1.07,5.08-2.3,9.69-3.71,13.84-2.25,6.51-4.78,11.94-7.59,16.3-2.82,4.36-5.81,7.86-8.99,10.5-3.18,2.64-6.47,4.53-9.87,5.65-3.41,1.12-6.8,1.68-10.19,1.68-2.93,0-5.64-.32-8.13-.97-2.49-.65-4.65-1.52-6.48-2.63-1.83-1.1-3.26-2.39-4.31-3.85-1.05-1.47-1.57-3.02-1.57-4.65,0-.91.21-1.82.63-2.71.42-.89,1-1.68,1.74-2.37.74-.68,1.62-1.25,2.63-1.68,1.01-.44,2.1-.66,3.28-.66,1.1,1.98,2.32,3.66,3.65,5.05,1.33,1.39,2.76,2.53,4.28,3.42,1.52.89,3.1,1.55,4.74,1.97,1.64.42,3.29.63,4.97.63,4.38,0,8.1-1.42,11.16-4.25,3.06-2.84,5.63-6.85,7.71-12.04s3.7-11.46,4.88-18.81c1.18-7.34,2.08-15.52,2.71-24.51s1.05-18.72,1.26-29.17c.21-10.45.35-21.4.43-32.85-3.58.04-6.89.17-9.93.4-3.04.23-5.59.72-7.65,1.48-.15-.34-.23-.7-.23-1.08,0-.91.44-1.76,1.31-2.54.88-.78,2.1-1.47,3.68-2.08,1.58-.61,3.48-1.1,5.71-1.48,2.23-.38,4.69-.63,7.39-.74.15-3.58.34-6.99.57-10.25.23-3.25.52-6.47.88-9.65.36-3.18.81-6.36,1.34-9.56s1.2-6.51,2-9.93c1.03-4.45,2.36-8.46,4-12.02,1.64-3.56,3.49-6.72,5.57-9.47s4.32-5.13,6.74-7.11c2.42-1.98,4.9-3.6,7.45-4.88,2.55-1.27,5.14-2.21,7.76-2.8,2.62-.59,5.19-.88,7.71-.88,3.69,0,6.97.49,9.85,1.46,2.87.97,5.31,2.25,7.31,3.82,2,1.58,3.52,3.36,4.57,5.34,1.05,1.98,1.57,4,1.57,6.05,0,1.6-.26,3.02-.77,4.28s-1.22,2.31-2.11,3.17c-.89.86-1.93,1.51-3.11,1.97-1.18.46-2.44.68-3.77.68-1.75,0-3.6-.44-5.54-1.31l-.23-.63c.72-1.67,1.26-3.14,1.63-4.4.36-1.26.54-2.55.54-3.88,0-1.83-.37-3.4-1.11-4.71-.74-1.31-1.71-2.39-2.91-3.23-1.2-.84-2.53-1.45-4-1.83-1.46-.38-2.92-.57-4.37-.57-4.26,0-7.87.95-10.82,2.85-2.95,1.9-5.4,4.52-7.36,7.85-1.96,3.33-3.51,7.25-4.65,11.76-1.14,4.51-2.01,9.37-2.6,14.58s-1.01,10.66-1.26,16.35c-.25,5.69-.47,11.37-.66,17.04Z"/>
  <circle class="cls-2" cx="132.88" cy="84.48" r="12.99"/>
  <circle class="cls-2" cx="192.62" cy="84.48" r="12.99"/>
  <g>
    <path class="cls-2" d="M333.63,193.03c0,3.05-1.1,5.34-3.31,6.87-1.97,1.36-4.68,2.04-8.14,2.04-.38,0-1.31-.04-2.78-.13-1.47-.08-2.57-.13-3.31-.13-1.29,0-2.38.08-3.27.25-.38.08-.62.1-.72.04-.08-.04-.13-.2-.15-.47-.01-.37.32-.69,1-.95.79-.33,1.32-.62,1.59-.89.38-.38.62-.98.72-1.8l2.44-19.89c.01-.16.02-.3.02-.42,0-1.09-.63-1.77-1.89-2.06-.75-.17-1.1-.42-1.06-.74.06-.4.17-.64.33-.72.16-.08.5-.09,1.03-.02.38.06,1.36.08,2.95.08.88,0,1.91-.01,3.09-.04,1.18-.03,1.96-.04,2.34-.04,2.73,0,4.86.5,6.38,1.49,1.6,1,2.4,2.44,2.4,4.3,0,3.11-1.93,5.38-5.79,6.81-.38.14-.38.25,0,.32,1.75.25,3.17.86,4.24,1.8,1.26,1.09,1.89,2.52,1.89,4.31ZM329.48,193.56c0-4-2.21-6-6.62-6-1.09,0-2.02.08-2.78.23l-1.29,10.5c-.17,1.36,1.15,2.04,3.94,2.04,4.5,0,6.74-2.25,6.74-6.77ZM329.16,180.17c0-3.12-1.8-4.69-5.39-4.69-.92,0-1.53.09-1.84.28-.24.16-.39.45-.45.89l-1.19,9.2h1.82c4.69,0,7.04-1.89,7.04-5.68Z"/>
    <path class="cls-2" d="M357.3,191.56c0,3-.88,5.51-2.63,7.55-1.7,1.94-3.7,2.91-6,2.91-4.09,0-6.13-2.31-6.13-6.94,0-3,.92-5.49,2.76-7.46,1.71-1.84,3.7-2.76,5.98-2.76,1.96,0,3.47.6,4.52,1.8,1,1.16,1.51,2.79,1.51,4.9ZM353.88,192.73c0-3.97-1.14-5.96-3.44-5.96-1.34,0-2.42.67-3.24,2.01-.82,1.34-1.23,3.17-1.23,5.47,0,3.93,1.2,5.9,3.61,5.9,1.31,0,2.36-.67,3.14-2.02.78-1.34,1.17-3.15,1.17-5.41Z"/>
    <path class="cls-2" d="M379.58,191.56c0,3-.88,5.51-2.63,7.55-1.7,1.94-3.7,2.91-6,2.91-4.09,0-6.13-2.31-6.13-6.94,0-3,.92-5.49,2.76-7.46,1.71-1.84,3.7-2.76,5.98-2.76,1.96,0,3.47.6,4.52,1.8,1,1.16,1.51,2.79,1.51,4.9ZM376.17,192.73c0-3.97-1.14-5.96-3.44-5.96-1.34,0-2.42.67-3.24,2.01-.82,1.34-1.23,3.17-1.23,5.47,0,3.93,1.2,5.9,3.61,5.9,1.31,0,2.36-.67,3.14-2.02.78-1.34,1.17-3.15,1.17-5.41Z"/>
    <path class="cls-2" d="M404.31,198.58c-1.7,2.26-3.24,3.39-4.64,3.39-.99,0-1.8-.43-2.44-1.28-.64-.86-1.48-2.65-2.52-5.4-.25-.52-.11-.91.45-1.17,3.1-1.48,4.66-3.05,4.69-4.71.03-1.33-.65-1.99-2.04-1.99-1.3,0-2.55.92-3.75,2.76-1.24,1.92-2.12,4.42-2.63,7.49l-.53,3.14c-.1.61-.76.95-1.99,1.04-.41.03-.72-.01-.92-.13-.21-.11-.29-.3-.24-.57,1.43-10.17,2.5-18.71,3.2-25.62.1-.96-.04-1.44-.42-1.44-.58,0-1.55.19-2.91.57-.14.04-.28-.04-.4-.24-.13-.21-.19-.41-.19-.6,0-.13.04-.21.11-.23,2.96-1.39,4.83-2.08,5.64-2.08,1.22,0,1.82.47,1.82,1.42,0,.11-.01.23-.04.36-.67,4.09-1.61,9.69-2.82,16.8-.01.11.04.17.15.17.13.01.23-.03.3-.13,2.16-3.53,4.43-5.3,6.81-5.3,1.2,0,2.15.32,2.85.95.7.64,1.04,1.49,1.01,2.57-.04,2.46-1.62,4.5-4.73,6.13-.34.17-.41.47-.21.91,1.26,2.79,2.25,4.18,2.99,4.18.64,0,1.56-.61,2.78-1.82.03-.03.06-.04.11-.04.11,0,.24.08.38.25.14.17.21.33.21.49,0,.06-.01.11-.04.15Z"/>
    <path class="cls-2" d="M453.5,174.58c.01.31-.1.53-.34.66-.03.01-.29.1-.78.25-1.4.44-3.11,1.46-5.13,3.08-1.13.92-4.38,3.58-9.76,8,2.21,2.62,5.54,6.44,9.99,11.47,1.09,1.17,2.25,1.94,3.48,2.29.61.18.89.42.85.7-.06.51-.36.76-.91.74-3.17-.13-5.89-.06-8.17.21-.48.11-.74,0-.76-.34-.04-.34.28-.66.95-.96.44-.2.66-.59.66-1.17,0-.44-.16-.86-.49-1.27-1.94-2.42-4.81-5.79-8.61-10.12l-1.25,10.16c-.1.81.61,1.44,2.12,1.91.68.21,1,.49.95.83-.04.4-.16.63-.34.7-.1.06-.39.07-.87.04-2.36-.11-4.98-.06-7.87.17-.35.03-.57,0-.66-.1s-.11-.31-.08-.65c.06-.37.36-.58.91-.64,1.29-.16,2.01-.91,2.18-2.27l2.48-20.36c.01-.16.02-.3.02-.42,0-1.07-.6-1.76-1.8-2.06l-.72-.17c-.2-.1-.28-.29-.23-.57.03-.34.12-.55.27-.65s.49-.12,1.03-.1c3.29.2,5.96.2,8,0,.34-.03.57,0,.69.1s.17.31.14.65c-.03.25-.36.46-1,.62-1.12.25-1.81.5-2.08.72-.31.25-.52.78-.61,1.57l-1.15,9.27c2.38-1.97,5.78-4.81,10.22-8.53.81-.69,1.21-1.33,1.21-1.91,0-.51-.32-.9-.95-1.17-.41-.18-.66-.32-.75-.41s-.1-.27-.03-.54c.08-.31.19-.5.32-.55.11-.06.42-.05.91.02,2.5.34,4.88.37,7.15.08.35-.04.58-.02.68.05.1.08.15.29.15.65Z"/>
    <path class="cls-2" d="M477.14,198.5c-1.67,2.29-3.22,3.44-4.64,3.44-1.27,0-1.91-.67-1.91-1.99,0-.95.16-2.28.47-3.99.03-.14,0-.22-.11-.23-.11-.01-.21.05-.28.19-2.46,4.16-4.91,6.24-7.34,6.24s-3.69-1.37-3.69-4.11c0-3.39,1.32-6.46,3.95-9.2,2.42-2.49,4.82-3.73,7.21-3.73.73,0,1.51.14,2.33.42.21.07.46-.06.74-.38.47-.52.85-.79,1.17-.79.16,0,.33.06.53.17s.29.27.28.47c-.01.18-.13.61-.36,1.27-1.33,3.85-1.99,7.62-1.99,11.33,0,1.34.22,2.01.66,2.01s1.19-.64,2.25-1.93c.04-.01.08-.02.11-.02.13,0,.27.09.42.26.16.18.23.34.23.48,0,.06,0,.09-.02.11ZM471.42,189.46c0-1.53-.78-2.29-2.35-2.29-1.34,0-2.71.93-4.09,2.8-1.47,1.98-2.21,4.11-2.21,6.41,0,1.99.74,2.99,2.21,2.99s2.89-1.34,4.43-4.03c1.34-2.3,2.01-4.26,2.01-5.88Z"/>
    <path class="cls-2" d="M497.82,186.73c-.54,1.74-1.08,2.61-1.61,2.61-.2,0-.65-.16-1.37-.48s-1.25-.48-1.6-.48c-.69,0-1.54.86-2.54,2.59-1.12,1.91-1.94,4.14-2.48,6.7l-.66,3.14c-.13.62-.75.97-1.87,1.04-.41.03-.71-.01-.89-.13-.18-.11-.25-.3-.19-.57.44-2.05.88-4.09,1.34-6.13.5-2.54.74-4.62.74-6.24,0-.96-.2-1.44-.59-1.44-.45,0-1.24.65-2.35,1.95-.03.03-.07.04-.13.04-.13,0-.26-.08-.4-.25-.14-.17-.21-.33-.21-.49,0-.07.01-.13.04-.17,1.72-2.29,3.32-3.44,4.77-3.44.72,0,1.21.14,1.45.43.25.29.37.8.37,1.54,0,.51-.14,1.55-.42,3.12-.03.11.01.18.13.21.11.03.21-.03.3-.17.83-1.34,1.78-2.49,2.84-3.44,1.39-1.24,2.7-1.87,3.94-1.87,1.06,0,1.59.3,1.59.89,0,.24-.06.58-.19,1.02Z"/>
    <path class="cls-2" d="M519.21,191.56c0,3-.88,5.51-2.63,7.55-1.7,1.94-3.7,2.91-6,2.91-4.09,0-6.13-2.31-6.13-6.94,0-3,.92-5.49,2.76-7.46,1.71-1.84,3.7-2.76,5.98-2.76,1.96,0,3.47.6,4.52,1.8,1,1.16,1.51,2.79,1.51,4.9ZM515.8,192.73c0-3.97-1.14-5.96-3.44-5.96-1.34,0-2.42.67-3.24,2.01-.82,1.34-1.23,3.17-1.23,5.47,0,3.93,1.2,5.9,3.61,5.9,1.31,0,2.36-.67,3.14-2.02.78-1.34,1.17-3.15,1.17-5.41Z"/>
  </g>
  <path class="cls-5" d="M504.61,47.8c-1.49-3.93.48-8.32,4.41-9.82l-7.58-19.92c-1.58-4.15-6.23-6.24-10.38-4.66l-137.39,52.27c-4.15,1.58-6.24,6.23-4.66,10.38l7.58,19.92c3.93-1.49,8.32.48,9.82,4.41s-.48,8.32-4.41,9.82l7.58,19.92c1.58,4.15,6.23,6.24,10.38,4.66l137.39-52.27c4.15-1.58,6.24-6.23,4.66-10.38l-7.58-19.92c-3.93,1.49-8.32-.48-9.82-4.41Z"/>
  <polygon class="cls-9" points="373.1 72.09 374.38 73.33 376.05 72.97 375.35 74.57 376.25 76.13 374.54 75.88 373.43 77.2 373.07 75.44 371.48 74.71 372.97 73.86 373.1 72.09"/>
  <polygon class="cls-9" points="459.12 71.93 460.4 73.17 462.07 72.81 461.37 74.42 462.27 75.97 460.56 75.73 459.45 77.04 459.09 75.29 457.5 74.55 458.99 73.71 459.12 71.93"/>
  <polygon class="cls-9" points="430.97 52.98 431.97 53.94 433.27 53.66 432.72 54.91 433.42 56.12 432.09 55.93 431.22 56.96 430.94 55.59 429.71 55.02 430.87 54.36 430.97 52.98"/>
  <polygon class="cls-9" points="399.03 79.09 400.02 80.05 401.32 79.77 400.78 81.02 401.48 82.23 400.15 82.04 399.28 83.07 399 81.7 397.77 81.13 398.92 80.47 399.03 79.09"/>
  <path class="cls-3" d="M420.72,56.61l-.68-1.78-14.25,5.42.68,1.78,4.9-1.86c2.04-.77,4.33.12,5.32,2.05l-8.86,3.37.68,1.78,8.86-3.37c.55,2.11-.58,4.29-2.61,5.07l-4.9,1.86.79,2.09,11.49,4.45.69-1.78-9.98-3.86,2.58-.98c3.02-1.15,4.64-4.43,3.73-7.54l3.58-1.36-.68-1.78-3.58,1.36c-.61-1.3-1.65-2.34-2.95-2.95l5.18-1.97Z"/>
  <g>
    <line class="cls-6" x1="467.82" y1="30.1" x2="468.18" y2="31.03"/>
    <line class="cls-12" x1="468.9" y1="32.93" x2="480.09" y2="62.35"/>
    <line class="cls-6" x1="480.46" y1="63.3" x2="480.81" y2="64.24"/>
  </g>
  <line class="cls-10" x1="397.28" y1="97.94" x2="448.09" y2="78.61"/>
  <line class="cls-11" x1="413.83" y1="98.62" x2="436.18" y2="90.12"/>
  <line class="cls-10" x1="478.27" y1="32.63" x2="488.66" y2="59.94"/>
  <line class="cls-11" x1="485.58" y1="32.79" x2="494.67" y2="56.69"/>
  <path class="cls-4" d="M518.64,115.65c0-5.02,4.07-9.09,9.09-9.09v-25.46c0-5.31-4.3-9.61-9.61-9.61h-175.61c-5.31,0-9.61,4.3-9.61,9.61v25.46c5.02,0,9.09,4.07,9.09,9.09s-4.07,9.09-9.09,9.09v25.46c0,5.31,4.3,9.61,9.61,9.61h175.61c5.31,0,9.61-4.3,9.61-9.61v-25.46c-5.02,0-9.09-4.07-9.09-9.09Z"/>
  <polygon class="cls-9" points="361.48 86.91 362.38 88.83 364.4 89.14 362.94 90.64 363.28 92.75 361.48 91.75 359.67 92.75 360.01 90.64 358.55 89.14 360.57 88.83 361.48 86.91"/>
  <polygon class="cls-9" points="457.59 123.28 458.49 125.2 460.51 125.51 459.05 127.01 459.4 129.12 457.59 128.12 455.78 129.12 456.13 127.01 454.67 125.51 456.69 125.2 457.59 123.28"/>
  <polygon class="cls-9" points="434.21 90.16 434.91 91.65 436.48 91.89 435.35 93.06 435.62 94.7 434.21 93.92 432.81 94.7 433.07 93.06 431.94 91.89 433.51 91.65 434.21 90.16"/>
  <polygon class="cls-9" points="387.45 105.74 388.16 107.24 389.73 107.48 388.59 108.64 388.86 110.29 387.45 109.51 386.05 110.29 386.32 108.64 385.18 107.48 386.75 107.24 387.45 105.74"/>
  <path class="cls-3" d="M421.22,89.86v-2.28h-18.21v2.28h6.26c2.6,0,4.78,1.97,5.06,4.55h-11.32v2.28h11.32c-.28,2.58-2.46,4.54-5.06,4.55h-6.26v2.67l10.94,9.85,1.52-1.69-9.5-8.55h3.29c3.86,0,7.07-2.98,7.37-6.83h4.58v-2.28h-4.58c-.13-1.71-.85-3.32-2.04-4.55h6.62Z"/>
  <g>
    <line class="cls-6" x1="483.57" y1="78.41" x2="483.57" y2="79.41"/>
    <line class="cls-8" x1="483.57" y1="81.44" x2="483.57" y2="149.14"/>
    <line class="cls-6" x1="483.57" y1="150.15" x2="483.57" y2="151.15"/>
  </g>
  <g>
    <circle class="cls-3" cx="358.01" cy="149.42" r="1.95"/>
    <circle class="cls-3" cx="371" cy="149.42" r="1.95"/>
    <circle class="cls-3" cx="383.99" cy="149.42" r="1.95"/>
    <circle class="cls-3" cx="396.98" cy="149.42" r="1.95"/>
    <circle class="cls-3" cx="409.97" cy="149.42" r="1.95"/>
    <circle class="cls-3" cx="422.95" cy="149.42" r="1.95"/>
    <circle class="cls-3" cx="435.94" cy="149.42" r="1.95"/>
    <circle class="cls-3" cx="448.93" cy="149.42" r="1.95"/>
    <circle class="cls-3" cx="461.92" cy="149.42" r="1.95"/>
  </g>
  <line class="cls-10" x1="377.49" y1="126.04" x2="442.44" y2="126.04"/>
  <line class="cls-11" x1="395.68" y1="133.83" x2="424.25" y2="133.83"/>
  <line class="cls-10" x1="495.26" y1="86.21" x2="495.26" y2="143.36"/>
  <line class="cls-11" x1="500.45" y1="91.4" x2="500.45" y2="138.16"/>
  <path class="cls-2" d="M367.04,158.54c0,2.7-1.96,3.92-5.88,3.66-18.73-.96-32.92-1.13-42.59-.52-4.96.35-7.67-.26-8.1-1.83-.18-.52-.26-1.26-.26-2.22,0-1.74,2.53-3.31,7.58-4.7,4.62-1.31,6.92-5.79,6.92-13.46v-34.75c0-19.94-8.67-29.92-26-29.92-7.75,0-14.94,1.83-21.56,5.49-6.27,3.57-9.41,7.27-9.41,11.1v47.82c0,8.19,5.36,12.76,16.07,13.72,4.09.35,6.14,1.66,6.14,3.92s-.57,3.48-1.7,3.92c-.52.17-2,.22-4.44.13-13.67-.52-27.78.17-42.33,2.09-3.14.43-5.09.57-5.88.39-1.74-.35-2.61-1.7-2.61-4.05,0-2.09,2.48-3.88,7.45-5.36,4.62-1.39,6.92-7.19,6.92-17.38v-39.59c0-6.71-.87-10.97-2.61-12.8-1.22-1.31-5.27-3.14-12.15-5.49-1.74-.61-2.61-1.83-2.61-3.66s1.78-3.27,5.36-4.57c4.88-1.83,10.23-4.75,16.07-8.75,4.88-3.31,8.01-4.96,9.41-4.96,2.35,0,3.92,2.68,4.7,8.04.78,5.36,1.87,8.03,3.27,8.03-.7,0,3.74-2.55,13.33-7.64,9.58-5.1,19.03-7.64,28.35-7.64,22.56,0,33.92,12.85,34.1,38.54l.26,42.07c0,5.4,1.39,9.28,4.18,11.63,2.09,1.74,6.14,3.22,12.15,4.44,3.92.78,5.88,2.22,5.88,4.31Z"/>
</svg>